<svg width="2067" height="820" viewBox="0 0 2067 820" fill="none" xmlns="http://www.w3.org/2000/svg">
<rect width="2067" height="820" fill="#0D180A"/>

<!-- ==================== LEFT: Stride 1 ==================== -->

<text x="621" y="80" text-anchor="middle" font-family="Inter, system-ui, -apple-system, 'Segoe UI', sans-serif" font-size="24" font-weight="400" fill="#7FEE64">Stride 1</text>
<text x="621" y="116" text-anchor="middle" font-family="Inter, system-ui, -apple-system, 'Segoe UI', sans-serif" font-size="24" font-weight="400" fill="#7FEE64">CUDA Threads</text>

<!-- Thread cells background tint -->
<rect width="768" height="100" transform="translate(237 130)" fill="#7FEE64" fill-opacity="0.1"/>

<!-- 32 thread cells -->
<rect x="237" y="130" width="24" height="100" fill="#7FEE64" fill-opacity="0.2" stroke="#7FEE64" stroke-width="1"/>
<rect x="261" y="130" width="24" height="100" fill="#7FEE64" fill-opacity="0.2" stroke="#7FEE64" stroke-width="1"/>
<rect x="285" y="130" width="24" height="100" fill="#7FEE64" fill-opacity="0.2" stroke="#7FEE64" stroke-width="1"/>
<rect x="309" y="130" width="24" height="100" fill="#7FEE64" fill-opacity="0.2" stroke="#7FEE64" stroke-width="1"/>
<rect x="333" y="130" width="24" height="100" fill="#7FEE64" fill-opacity="0.2" stroke="#7FEE64" stroke-width="1"/>
<rect x="357" y="130" width="24" height="100" fill="#7FEE64" fill-opacity="0.2" stroke="#7FEE64" stroke-width="1"/>
<rect x="381" y="130" width="24" height="100" fill="#7FEE64" fill-opacity="0.2" stroke="#7FEE64" stroke-width="1"/>
<rect x="405" y="130" width="24" height="100" fill="#7FEE64" fill-opacity="0.2" stroke="#7FEE64" stroke-width="1"/>
<rect x="429" y="130" width="24" height="100" fill="#7FEE64" fill-opacity="0.2" stroke="#7FEE64" stroke-width="1"/>
<rect x="453" y="130" width="24" height="100" fill="#7FEE64" fill-opacity="0.2" stroke="#7FEE64" stroke-width="1"/>
<rect x="477" y="130" width="24" height="100" fill="#7FEE64" fill-opacity="0.2" stroke="#7FEE64" stroke-width="1"/>
<rect x="501" y="130" width="24" height="100" fill="#7FEE64" fill-opacity="0.2" stroke="#7FEE64" stroke-width="1"/>
<rect x="525" y="130" width="24" height="100" fill="#7FEE64" fill-opacity="0.2" stroke="#7FEE64" stroke-width="1"/>
<rect x="549" y="130" width="24" height="100" fill="#7FEE64" fill-opacity="0.2" stroke="#7FEE64" stroke-width="1"/>
<rect x="573" y="130" width="24" height="100" fill="#7FEE64" fill-opacity="0.2" stroke="#7FEE64" stroke-width="1"/>
<rect x="597" y="130" width="24" height="100" fill="#7FEE64" fill-opacity="0.2" stroke="#7FEE64" stroke-width="1"/>
<rect x="621" y="130" width="24" height="100" fill="#7FEE64" fill-opacity="0.2" stroke="#7FEE64" stroke-width="1"/>
<rect x="645" y="130" width="24" height="100" fill="#7FEE64" fill-opacity="0.2" stroke="#7FEE64" stroke-width="1"/>
<rect x="669" y="130" width="24" height="100" fill="#7FEE64" fill-opacity="0.2" stroke="#7FEE64" stroke-width="1"/>
<rect x="693" y="130" width="24" height="100" fill="#7FEE64" fill-opacity="0.2" stroke="#7FEE64" stroke-width="1"/>
<rect x="717" y="130" width="24" height="100" fill="#7FEE64" fill-opacity="0.2" stroke="#7FEE64" stroke-width="1"/>
<rect x="741" y="130" width="24" height="100" fill="#7FEE64" fill-opacity="0.2" stroke="#7FEE64" stroke-width="1"/>
<rect x="765" y="130" width="24" height="100" fill="#7FEE64" fill-opacity="0.2" stroke="#7FEE64" stroke-width="1"/>
<rect x="789" y="130" width="24" height="100" fill="#7FEE64" fill-opacity="0.2" stroke="#7FEE64" stroke-width="1"/>
<rect x="813" y="130" width="24" height="100" fill="#7FEE64" fill-opacity="0.2" stroke="#7FEE64" stroke-width="1"/>
<rect x="837" y="130" width="24" height="100" fill="#7FEE64" fill-opacity="0.2" stroke="#7FEE64" stroke-width="1"/>
<rect x="861" y="130" width="24" height="100" fill="#7FEE64" fill-opacity="0.2" stroke="#7FEE64" stroke-width="1"/>
<rect x="885" y="130" width="24" height="100" fill="#7FEE64" fill-opacity="0.2" stroke="#7FEE64" stroke-width="1"/>
<rect x="909" y="130" width="24" height="100" fill="#7FEE64" fill-opacity="0.2" stroke="#7FEE64" stroke-width="1"/>
<rect x="933" y="130" width="24" height="100" fill="#7FEE64" fill-opacity="0.2" stroke="#7FEE64" stroke-width="1"/>
<rect x="957" y="130" width="24" height="100" fill="#7FEE64" fill-opacity="0.2" stroke="#7FEE64" stroke-width="1"/>
<rect x="981" y="130" width="24" height="100" fill="#7FEE64" fill-opacity="0.2" stroke="#7FEE64" stroke-width="1"/>

<!-- 32 lines converging from each thread toward center of burst bar -->
<line x1="249" y1="230" x2="565" y2="490" stroke="#7FEE64" stroke-width="2"/>
<line x1="273" y1="230" x2="569" y2="490" stroke="#7FEE64" stroke-width="2"/>
<line x1="297" y1="230" x2="572" y2="490" stroke="#7FEE64" stroke-width="2"/>
<line x1="321" y1="230" x2="576" y2="490" stroke="#7FEE64" stroke-width="2"/>
<line x1="345" y1="230" x2="580" y2="490" stroke="#7FEE64" stroke-width="2"/>
<line x1="369" y1="230" x2="583" y2="490" stroke="#7FEE64" stroke-width="2"/>
<line x1="393" y1="230" x2="587" y2="490" stroke="#7FEE64" stroke-width="2"/>
<line x1="417" y1="230" x2="590" y2="490" stroke="#7FEE64" stroke-width="2"/>
<line x1="441" y1="230" x2="594" y2="490" stroke="#7FEE64" stroke-width="2"/>
<line x1="465" y1="230" x2="598" y2="490" stroke="#7FEE64" stroke-width="2"/>
<line x1="489" y1="230" x2="601" y2="490" stroke="#7FEE64" stroke-width="2"/>
<line x1="513" y1="230" x2="605" y2="490" stroke="#7FEE64" stroke-width="2"/>
<line x1="537" y1="230" x2="608" y2="490" stroke="#7FEE64" stroke-width="2"/>
<line x1="561" y1="230" x2="612" y2="490" stroke="#7FEE64" stroke-width="2"/>
<line x1="585" y1="230" x2="616" y2="490" stroke="#7FEE64" stroke-width="2"/>
<line x1="609" y1="230" x2="619" y2="490" stroke="#7FEE64" stroke-width="2"/>
<line x1="633" y1="230" x2="623" y2="490" stroke="#7FEE64" stroke-width="2"/>
<line x1="657" y1="230" x2="626" y2="490" stroke="#7FEE64" stroke-width="2"/>
<line x1="681" y1="230" x2="630" y2="490" stroke="#7FEE64" stroke-width="2"/>
<line x1="705" y1="230" x2="634" y2="490" stroke="#7FEE64" stroke-width="2"/>
<line x1="729" y1="230" x2="637" y2="490" stroke="#7FEE64" stroke-width="2"/>
<line x1="753" y1="230" x2="641" y2="490" stroke="#7FEE64" stroke-width="2"/>
<line x1="777" y1="230" x2="644" y2="490" stroke="#7FEE64" stroke-width="2"/>
<line x1="801" y1="230" x2="648" y2="490" stroke="#7FEE64" stroke-width="2"/>
<line x1="825" y1="230" x2="652" y2="490" stroke="#7FEE64" stroke-width="2"/>
<line x1="849" y1="230" x2="655" y2="490" stroke="#7FEE64" stroke-width="2"/>
<line x1="873" y1="230" x2="659" y2="490" stroke="#7FEE64" stroke-width="2"/>
<line x1="897" y1="230" x2="662" y2="490" stroke="#7FEE64" stroke-width="2"/>
<line x1="921" y1="230" x2="666" y2="490" stroke="#7FEE64" stroke-width="2"/>
<line x1="945" y1="230" x2="670" y2="490" stroke="#7FEE64" stroke-width="2"/>
<line x1="969" y1="230" x2="673" y2="490" stroke="#7FEE64" stroke-width="2"/>
<line x1="993" y1="230" x2="677" y2="490" stroke="#7FEE64" stroke-width="2"/>

<!-- Single DRAM burst bar (narrower, centered) -->
<rect x="421" y="490" width="400" height="80" fill="#7FEE64" fill-opacity="0.2" stroke="#7FEE64" stroke-width="2"/>
<text x="621" y="538" text-anchor="middle" font-family="Inter, system-ui, -apple-system, 'Segoe UI', sans-serif" font-size="24" font-weight="400" fill="#7FEE64">128-byte Physical DRAM Burst</text>

<!-- Caption -->
<text x="621" y="620" text-anchor="middle" font-family="Inter, system-ui, -apple-system, 'Segoe UI', sans-serif" font-size="24" font-weight="400" fill="#7FEE64">Coalesced Access</text>

<!-- ==================== RIGHT: Stride 16 ==================== -->

<text x="1646" y="80" text-anchor="middle" font-family="Inter, system-ui, -apple-system, 'Segoe UI', sans-serif" font-size="24" font-weight="400" fill="#7FEE64">Stride 16</text>
<text x="1646" y="116" text-anchor="middle" font-family="Inter, system-ui, -apple-system, 'Segoe UI', sans-serif" font-size="24" font-weight="400" fill="#7FEE64">CUDA Threads</text>

<!-- Thread cells background tint -->
<rect width="768" height="100" transform="translate(1262 130)" fill="#7FEE64" fill-opacity="0.1"/>

<!-- 32 thread cells -->
<rect x="1262" y="130" width="24" height="100" fill="#7FEE64" fill-opacity="0.2" stroke="#7FEE64" stroke-width="1"/>
<rect x="1286" y="130" width="24" height="100" fill="#7FEE64" fill-opacity="0.2" stroke="#7FEE64" stroke-width="1"/>
<rect x="1310" y="130" width="24" height="100" fill="#7FEE64" fill-opacity="0.2" stroke="#7FEE64" stroke-width="1"/>
<rect x="1334" y="130" width="24" height="100" fill="#7FEE64" fill-opacity="0.2" stroke="#7FEE64" stroke-width="1"/>
<rect x="1358" y="130" width="24" height="100" fill="#7FEE64" fill-opacity="0.2" stroke="#7FEE64" stroke-width="1"/>
<rect x="1382" y="130" width="24" height="100" fill="#7FEE64" fill-opacity="0.2" stroke="#7FEE64" stroke-width="1"/>
<rect x="1406" y="130" width="24" height="100" fill="#7FEE64" fill-opacity="0.2" stroke="#7FEE64" stroke-width="1"/>
<rect x="1430" y="130" width="24" height="100" fill="#7FEE64" fill-opacity="0.2" stroke="#7FEE64" stroke-width="1"/>
<rect x="1454" y="130" width="24" height="100" fill="#7FEE64" fill-opacity="0.2" stroke="#7FEE64" stroke-width="1"/>
<rect x="1478" y="130" width="24" height="100" fill="#7FEE64" fill-opacity="0.2" stroke="#7FEE64" stroke-width="1"/>
<rect x="1502" y="130" width="24" height="100" fill="#7FEE64" fill-opacity="0.2" stroke="#7FEE64" stroke-width="1"/>
<rect x="1526" y="130" width="24" height="100" fill="#7FEE64" fill-opacity="0.2" stroke="#7FEE64" stroke-width="1"/>
<rect x="1550" y="130" width="24" height="100" fill="#7FEE64" fill-opacity="0.2" stroke="#7FEE64" stroke-width="1"/>
<rect x="1574" y="130" width="24" height="100" fill="#7FEE64" fill-opacity="0.2" stroke="#7FEE64" stroke-width="1"/>
<rect x="1598" y="130" width="24" height="100" fill="#7FEE64" fill-opacity="0.2" stroke="#7FEE64" stroke-width="1"/>
<rect x="1622" y="130" width="24" height="100" fill="#7FEE64" fill-opacity="0.2" stroke="#7FEE64" stroke-width="1"/>
<rect x="1646" y="130" width="24" height="100" fill="#7FEE64" fill-opacity="0.2" stroke="#7FEE64" stroke-width="1"/>
<rect x="1670" y="130" width="24" height="100" fill="#7FEE64" fill-opacity="0.2" stroke="#7FEE64" stroke-width="1"/>
<rect x="1694" y="130" width="24" height="100" fill="#7FEE64" fill-opacity="0.2" stroke="#7FEE64" stroke-width="1"/>
<rect x="1718" y="130" width="24" height="100" fill="#7FEE64" fill-opacity="0.2" stroke="#7FEE64" stroke-width="1"/>
<rect x="1742" y="130" width="24" height="100" fill="#7FEE64" fill-opacity="0.2" stroke="#7FEE64" stroke-width="1"/>
<rect x="1766" y="130" width="24" height="100" fill="#7FEE64" fill-opacity="0.2" stroke="#7FEE64" stroke-width="1"/>
<rect x="1790" y="130" width="24" height="100" fill="#7FEE64" fill-opacity="0.2" stroke="#7FEE64" stroke-width="1"/>
<rect x="1814" y="130" width="24" height="100" fill="#7FEE64" fill-opacity="0.2" stroke="#7FEE64" stroke-width="1"/>
<rect x="1838" y="130" width="24" height="100" fill="#7FEE64" fill-opacity="0.2" stroke="#7FEE64" stroke-width="1"/>
<rect x="1862" y="130" width="24" height="100" fill="#7FEE64" fill-opacity="0.2" stroke="#7FEE64" stroke-width="1"/>
<rect x="1886" y="130" width="24" height="100" fill="#7FEE64" fill-opacity="0.2" stroke="#7FEE64" stroke-width="1"/>
<rect x="1910" y="130" width="24" height="100" fill="#7FEE64" fill-opacity="0.2" stroke="#7FEE64" stroke-width="1"/>
<rect x="1934" y="130" width="24" height="100" fill="#7FEE64" fill-opacity="0.2" stroke="#7FEE64" stroke-width="1"/>
<rect x="1958" y="130" width="24" height="100" fill="#7FEE64" fill-opacity="0.2" stroke="#7FEE64" stroke-width="1"/>
<rect x="1982" y="130" width="24" height="100" fill="#7FEE64" fill-opacity="0.2" stroke="#7FEE64" stroke-width="1"/>
<rect x="2006" y="130" width="24" height="100" fill="#7FEE64" fill-opacity="0.2" stroke="#7FEE64" stroke-width="1"/>

<!-- 32 crossing lines: each thread fetches from its own scattered DRAM block -->
<!-- Mapping is shuffled so non-adjacent threads share blocks and lines cross heavily -->
<!-- 16 blocks, each serving 2 non-adjacent threads -->

<!-- Thread 0  (x=1274) → b2  (1715, 395) -->
<line x1="1274" y1="230" x2="1715" y2="395" stroke="#7FEE64" stroke-width="2"/>
<!-- Thread 1  (x=1298) → b8  (1335, 530) -->
<line x1="1298" y1="230" x2="1335" y2="530" stroke="#7FEE64" stroke-width="2"/>
<!-- Thread 2  (x=1322) → b13 (1655, 590) -->
<line x1="1322" y1="230" x2="1655" y2="590" stroke="#7FEE64" stroke-width="2"/>
<!-- Thread 3  (x=1346) → b4  (1385, 470) -->
<line x1="1346" y1="230" x2="1385" y2="470" stroke="#7FEE64" stroke-width="2"/>
<!-- Thread 4  (x=1370) → b10 (1735, 540) -->
<line x1="1370" y1="230" x2="1735" y2="540" stroke="#7FEE64" stroke-width="2"/>
<!-- Thread 5  (x=1394) → b0  (1320, 400) -->
<line x1="1394" y1="230" x2="1320" y2="400" stroke="#7FEE64" stroke-width="2"/>
<!-- Thread 6  (x=1418) → b7  (1995, 450) -->
<line x1="1418" y1="230" x2="1995" y2="450" stroke="#7FEE64" stroke-width="2"/>
<!-- Thread 7  (x=1442) → b12 (1435, 580) -->
<line x1="1442" y1="230" x2="1435" y2="580" stroke="#7FEE64" stroke-width="2"/>
<!-- Thread 8  (x=1466) → b5  (1595, 455) -->
<line x1="1466" y1="230" x2="1595" y2="455" stroke="#7FEE64" stroke-width="2"/>
<!-- Thread 9  (x=1490) → b14 (1865, 575) -->
<line x1="1490" y1="230" x2="1865" y2="575" stroke="#7FEE64" stroke-width="2"/>
<!-- Thread 10 (x=1514) → b9  (1535, 520) -->
<line x1="1514" y1="230" x2="1535" y2="520" stroke="#7FEE64" stroke-width="2"/>
<!-- Thread 11 (x=1538) → b1  (1515, 410) -->
<line x1="1538" y1="230" x2="1515" y2="410" stroke="#7FEE64" stroke-width="2"/>
<!-- Thread 12 (x=1562) → b15 (1315, 630) -->
<line x1="1562" y1="230" x2="1315" y2="630" stroke="#7FEE64" stroke-width="2"/>
<!-- Thread 13 (x=1586) → b6  (1805, 465) -->
<line x1="1586" y1="230" x2="1805" y2="465" stroke="#7FEE64" stroke-width="2"/>
<!-- Thread 14 (x=1610) → b11 (1935, 525) -->
<line x1="1610" y1="230" x2="1935" y2="525" stroke="#7FEE64" stroke-width="2"/>
<!-- Thread 15 (x=1634) → b3  (1915, 420) -->
<line x1="1634" y1="230" x2="1915" y2="420" stroke="#7FEE64" stroke-width="2"/>
<!-- Thread 16 (x=1658) → b12 (1435, 580) -->
<line x1="1658" y1="230" x2="1435" y2="580" stroke="#7FEE64" stroke-width="2"/>
<!-- Thread 17 (x=1682) → b7  (1995, 450) -->
<line x1="1682" y1="230" x2="1995" y2="450" stroke="#7FEE64" stroke-width="2"/>
<!-- Thread 18 (x=1706) → b14 (1865, 575) -->
<line x1="1706" y1="230" x2="1865" y2="575" stroke="#7FEE64" stroke-width="2"/>
<!-- Thread 19 (x=1730) → b2  (1715, 395) -->
<line x1="1730" y1="230" x2="1715" y2="395" stroke="#7FEE64" stroke-width="2"/>
<!-- Thread 20 (x=1754) → b4  (1385, 470) -->
<line x1="1754" y1="230" x2="1385" y2="470" stroke="#7FEE64" stroke-width="2"/>
<!-- Thread 21 (x=1778) → b11 (1935, 525) -->
<line x1="1778" y1="230" x2="1935" y2="525" stroke="#7FEE64" stroke-width="2"/>
<!-- Thread 22 (x=1802) → b0  (1320, 400) -->
<line x1="1802" y1="230" x2="1320" y2="400" stroke="#7FEE64" stroke-width="2"/>
<!-- Thread 23 (x=1826) → b9  (1535, 520) -->
<line x1="1826" y1="230" x2="1535" y2="520" stroke="#7FEE64" stroke-width="2"/>
<!-- Thread 24 (x=1850) → b6  (1805, 465) -->
<line x1="1850" y1="230" x2="1805" y2="465" stroke="#7FEE64" stroke-width="2"/>
<!-- Thread 25 (x=1874) → b15 (1315, 630) -->
<line x1="1874" y1="230" x2="1315" y2="630" stroke="#7FEE64" stroke-width="2"/>
<!-- Thread 26 (x=1898) → b3  (1915, 420) -->
<line x1="1898" y1="230" x2="1915" y2="420" stroke="#7FEE64" stroke-width="2"/>
<!-- Thread 27 (x=1922) → b10 (1735, 540) -->
<line x1="1922" y1="230" x2="1735" y2="540" stroke="#7FEE64" stroke-width="2"/>
<!-- Thread 28 (x=1946) → b1  (1515, 410) -->
<line x1="1946" y1="230" x2="1515" y2="410" stroke="#7FEE64" stroke-width="2"/>
<!-- Thread 29 (x=1970) → b13 (1655, 590) -->
<line x1="1970" y1="230" x2="1655" y2="590" stroke="#7FEE64" stroke-width="2"/>
<!-- Thread 30 (x=1994) → b8  (1335, 530) -->
<line x1="1994" y1="230" x2="1335" y2="530" stroke="#7FEE64" stroke-width="2"/>
<!-- Thread 31 (x=2018) → b5  (1595, 455) -->
<line x1="2018" y1="230" x2="1595" y2="455" stroke="#7FEE64" stroke-width="2"/>

<!-- 16 scattered DRAM burst blocks at irregular positions -->
<!-- b0  --> <rect x="1285" y="400" width="70" height="50" fill="#7FEE64" fill-opacity="0.2" stroke="#7FEE64" stroke-width="1"/>
<!-- b1  --> <rect x="1480" y="410" width="70" height="50" fill="#7FEE64" fill-opacity="0.2" stroke="#7FEE64" stroke-width="1"/>
<!-- b2  --> <rect x="1680" y="395" width="70" height="50" fill="#7FEE64" fill-opacity="0.2" stroke="#7FEE64" stroke-width="1"/>
<!-- b3  --> <rect x="1880" y="420" width="70" height="50" fill="#7FEE64" fill-opacity="0.2" stroke="#7FEE64" stroke-width="1"/>
<!-- b4  --> <rect x="1350" y="470" width="70" height="50" fill="#7FEE64" fill-opacity="0.2" stroke="#7FEE64" stroke-width="1"/>
<!-- b5  --> <rect x="1560" y="455" width="70" height="50" fill="#7FEE64" fill-opacity="0.2" stroke="#7FEE64" stroke-width="1"/>
<!-- b6  --> <rect x="1770" y="465" width="70" height="50" fill="#7FEE64" fill-opacity="0.2" stroke="#7FEE64" stroke-width="1"/>
<!-- b7  --> <rect x="1960" y="450" width="70" height="50" fill="#7FEE64" fill-opacity="0.2" stroke="#7FEE64" stroke-width="1"/>
<!-- b8  --> <rect x="1300" y="530" width="70" height="50" fill="#7FEE64" fill-opacity="0.2" stroke="#7FEE64" stroke-width="1"/>
<!-- b9  --> <rect x="1500" y="520" width="70" height="50" fill="#7FEE64" fill-opacity="0.2" stroke="#7FEE64" stroke-width="1"/>
<!-- b10 --> <rect x="1700" y="540" width="70" height="50" fill="#7FEE64" fill-opacity="0.2" stroke="#7FEE64" stroke-width="1"/>
<!-- b11 --> <rect x="1900" y="525" width="70" height="50" fill="#7FEE64" fill-opacity="0.2" stroke="#7FEE64" stroke-width="1"/>
<!-- b12 --> <rect x="1400" y="580" width="70" height="50" fill="#7FEE64" fill-opacity="0.2" stroke="#7FEE64" stroke-width="1"/>
<!-- b13 --> <rect x="1620" y="590" width="70" height="50" fill="#7FEE64" fill-opacity="0.2" stroke="#7FEE64" stroke-width="1"/>
<!-- b14 --> <rect x="1830" y="575" width="70" height="50" fill="#7FEE64" fill-opacity="0.2" stroke="#7FEE64" stroke-width="1"/>
<!-- b15 --> <rect x="1280" y="630" width="70" height="50" fill="#7FEE64" fill-opacity="0.2" stroke="#7FEE64" stroke-width="1"/>

<!-- Caption -->
<text x="1646" y="730" text-anchor="middle" font-family="Inter, system-ui, -apple-system, 'Segoe UI', sans-serif" font-size="24" font-weight="400" fill="#7FEE64">Fragmented DRAM Fetch</text>

</svg>
